<?xml version="1.0" standalone="no"?>
<!DOCTYPE svg PUBLIC "-//W3C//DTD SVG 20010904//EN"
 "http://www.w3.org/TR/2001/REC-SVG-20010904/DTD/svg10.dtd">
<svg version="1.1" xmlns="http://www.w3.org/2000/svg" xmlns:xlink="http://www.w3.org/1999/xlink" viewBox="10 90 450 450">
<metadata>
Created by potrace 1.10, written by Peter Selinger 2001-2011
</metadata>
<g transform="translate(0.000000,307.000000) scale(0.100000,-0.100000)"
fill="#000000" stroke="none">
<path d="M1742 2193 c-12 -9 -127 -126 -254 -262 -128 -135 -235 -247 -239
-249 -4 -2 -58 59 -122 135 -63 76 -132 154 -152 173 l-37 35 -49 -53 c-55
-60 -594 -710 -767 -927 -62 -77 -111 -147 -110 -155 3 -13 55 -16 368 -21
349 -7 1673 -7 2303 -1 337 3 334 2 274 75 -79 95 -1009 1088 -1128 1204 -62
59 -65 61 -87 46z m88 -150 c36 -38 85 -89 110 -116 l44 -47 -36 -36 -36 -36
-37 41 c-21 23 -55 55 -77 72 l-38 31 -73 -71 -73 -71 -34 35 c-29 30 -32 36
-19 52 31 39 192 213 198 213 4 0 36 -30 71 -67z m-773 -256 l56 -68 -28 -29
-28 -30 -53 50 c-29 28 -57 50 -61 50 -5 0 -32 -22 -61 -50 l-51 -49 -31 30
-30 30 87 101 87 101 29 -34 c16 -19 54 -65 84 -102z m973 88 c10 -12 10 -15
-4 -15 -9 0 -16 7 -16 15 0 8 2 15 4 15 2 0 9 -7 16 -15z m-190 -90 c35 -36
68 -65 71 -65 4 0 32 23 63 51 31 28 60 49 65 47 5 -1 154 -158 331 -348 177
-190 363 -387 413 -437 l92 -93 -1373 0 -1373 0 18 23 c10 13 144 175 297 360
l279 337 53 -46 54 -46 40 32 c22 17 47 41 55 53 14 20 15 20 69 -31 30 -29
58 -52 61 -52 3 0 28 20 55 46 l48 45 62 -73 c169 -199 205 -237 225 -235 43
4 28 42 -59 152 -48 60 -86 111 -86 114 0 4 43 53 96 109 l96 103 59 -56 c68
-65 66 -65 149 19 30 31 59 56 65 56 6 0 40 -29 75 -65z m-1725 -854 c7 -12
-12 -24 -25 -16 -11 7 -4 25 10 25 5 0 11 -4 15 -9z m2795 -6 c0 -8 -7 -15
-15 -15 -8 0 -15 7 -15 15 0 8 7 15 15 15 8 0 15 -7 15 -15z"/>
</g>
</svg>
